<?xml version="1.0" standalone="no"?>
<!DOCTYPE svg PUBLIC "-//W3C//DTD SVG 20010904//EN"
 "http://www.w3.org/TR/2001/REC-SVG-20010904/DTD/svg10.dtd">
<svg version="1.0" xmlns="http://www.w3.org/2000/svg"
 width="500.000000pt" height="500.000000pt" viewBox="0 0 500.000000 500.000000"
 preserveAspectRatio="xMidYMid meet">
<metadata>
Created by potrace 1.11, written by Peter Selinger 2001-2013
</metadata>
<g transform="translate(0.000000,500.000000) scale(0.100000,-0.100000)"
fill="#000000" stroke="none">
<path d="M464 3181 l0 -1576 1241 1 1242 1 22 -86 c12 -47 23 -95 26 -106 23
-102 39 -161 44 -165 3 -3 6 -14 6 -25 1 -32 68 -294 75 -290 3 2 5 -8 4 -22
0 -14 8 -55 18 -93 14 -52 101 -400 123 -490 24 -102 56 -224 60 -228 3 -3 5
1 6 9 0 8 2 21 4 29 8 39 16 71 35 150 11 47 23 94 25 105 3 11 14 56 24 100
11 44 17 83 15 87 -3 5 -1 8 4 8 5 0 13 21 17 48 10 58 10 57 26 112 16 59 21
80 22 110 1 14 5 27 8 30 5 4 25 81 45 175 1 6 9 37 17 70 9 33 18 71 21 85 2
14 7 32 10 40 3 8 7 26 10 40 11 67 72 296 80 302 5 3 38 5 73 4 34 -1 63 2
63 7 0 4 5 5 12 1 13 -8 675 -11 683 -2 5 4 7 1202 5 2914 l0 231 -2033 0
-2033 -1 0 -1575z"/>
</g>
</svg>
